<?xml version="1.0" encoding="UTF-8" standalone="no"?>
<!-- Created with Inkscape (http://www.inkscape.org/) -->

<svg
   xmlns:dc="http://purl.org/dc/elements/1.1/"
   xmlns:cc="http://creativecommons.org/ns#"
   xmlns:rdf="http://www.w3.org/1999/02/22-rdf-syntax-ns#"
   xmlns:svg="http://www.w3.org/2000/svg"
   xmlns="http://www.w3.org/2000/svg"
   xmlns:sodipodi="http://sodipodi.sourceforge.net/DTD/sodipodi-0.dtd"
   xmlns:inkscape="http://www.inkscape.org/namespaces/inkscape"
   version="1.1"
   width="1010"
   height="1010"
   id="svg2"
   inkscape:version="0.48.4 r9939"
   sodipodi:docname="psv_icon.svg">
  <sodipodi:namedview
     pagecolor="#ffffff"
     bordercolor="#666666"
     borderopacity="1"
     objecttolerance="10"
     gridtolerance="10"
     guidetolerance="10"
     inkscape:pageopacity="0"
     inkscape:pageshadow="2"
     inkscape:window-width="1366"
     inkscape:window-height="699"
     id="namedview92"
     showgrid="false"
     inkscape:zoom="0.5"
     inkscape:cx="687.93048"
     inkscape:cy="451.75666"
     inkscape:window-x="-2"
     inkscape:window-y="-3"
     inkscape:window-maximized="1"
     inkscape:current-layer="layer2"
     inkscape:showpageshadow="false"
     showborder="true"
     fit-margin-top="0"
     fit-margin-left="0"
     fit-margin-right="0"
     fit-margin-bottom="0" />
  <defs
     id="defs4" />
  <metadata
     id="metadata7">
    <rdf:RDF>
      <cc:Work
         rdf:about="">
        <dc:format>image/svg+xml</dc:format>
        <dc:type
           rdf:resource="http://purl.org/dc/dcmitype/StillImage" />
        <dc:title />
        <cc:license
           rdf:resource="" />
      </cc:Work>
    </rdf:RDF>
  </metadata>
  <g
     inkscape:groupmode="layer"
     id="layer3"
     inkscape:label="body"
     style="display:inline"
     transform="translate(-49.405789,533.29663)">
    <path
       d="m 241.00079,-253.50003 c -16.644,3.51 -20.6069,27.9664 -49.5923,37.5905 -10.6997,3.1138 -37.3641,6.6803 -69.0669,7.0199 -44.224295,37.0766 -66.660695,90.6481 -67.028895,172.7805 0,0.342 -6e-4,0.6779 0,1.019 -7e-4,0.3435 0,0.6745 0,1.019 0.3166,82.2059 19.8014,139.7211 64.028495,176.8001 31.7028,0.3396 58.3105,3.9626 69.0102,7.0764 29.9462,7.0621 36.6412,45.6729 55.3668,47.1014 30.6846,0 155.0608,0 155.0608,0 l 0,-0.056 311.2539,0 0,0.056 c 0,0 124.3762,0 155.0609,0 18.7255,-1.4283 25.4205,-40.0393 55.3667,-47.1014 10.6997,-3.1136 37.3075,-6.6802 69.0103,-7.0199 44.16601,-37.0275 63.65951,-94.4924 64.02841,-176.5169 0,-0.8038 0,-1.5793 0,-2.3777 -0.4289,-81.939 -22.866,-135.4159 -67.02881,-172.4408 -31.7029,-0.3397 -58.3106,-3.9063 -69.0103,-7.0199 -28.9855,-9.6241 -32.9483,-34.0806 -49.5923,-37.5905 l -101.5057,0 0,-0.3397 -364.526,0 -160.8353,0 z"
       id="path3779-4-7-1-1"
       style="fill:#000000;fill-opacity:1;stroke:#000000;stroke-width:3;stroke-miterlimit:4;stroke-opacity:1;stroke-dasharray:none;display:inline"
       inkscape:connector-curvature="0" />
    <path
       d="m 867.96259,-253.18103 c 56.483,0 92.5086,18.5168 119.3375,45.3458"
       id="path6365-3"
       style="fill:none;stroke:#000000;stroke-width:3;stroke-miterlimit:4;stroke-opacity:1;stroke-dasharray:none;display:inline"
       inkscape:connector-curvature="0" />
    <path
       d="m 244.58779,-253.41303 c -56.4829,0 -95.3289,17.5916 -122.1578,44.4205"
       id="path6365-5-7"
       style="fill:none;stroke:#000000;stroke-width:3;stroke-miterlimit:4;stroke-opacity:1;stroke-dasharray:none;display:inline"
       inkscape:connector-curvature="0" />
    <path
       d="m 866.36439,196.85617 c 0,0 40.2772,-0.091 76.3385,-19.1568 39.8697,-21.0804 45.3268,-32.2547 46.782,-34.7753"
       id="path6320-1-6-3"
       style="fill:none;stroke:#000000;stroke-width:3;stroke-miterlimit:4;stroke-opacity:1;stroke-dasharray:none;display:inline"
       inkscape:connector-curvature="0"
       sodipodi:nodetypes="ccc" />
    <path
       d="m 244.85369,196.62777 c 0,0 -42.1987,0.3105 -78.26,-18.7563 -39.8696,-21.0804 -45.3267,-32.2549 -46.7819,-34.7753"
       id="path6320-1-0"
       style="fill:none;stroke:#000000;stroke-width:3;stroke-miterlimit:4;stroke-opacity:1;stroke-dasharray:none;display:inline"
       inkscape:connector-curvature="0"
       sodipodi:nodetypes="csc" />
  </g>
  <g
     inkscape:groupmode="layer"
     id="layer2"
     inkscape:label="screen"
     style="display:inline"
     transform="translate(-49.405789,533.29663)">
    <rect
       width="603.87604"
       height="340.87958"
       x="254.41531"
       y="-218.06979"
       id="rect5559-7"
       style="fill:#ffffff;fill-opacity:1;stroke:#000000;stroke-width:3;stroke-miterlimit:4;stroke-opacity:1;stroke-dasharray:none;display:inline" />
    <path
       d="m 231.17949,-1.37563 a 50.8728,50.8728 0 0 1 -101.7456,0 50.8728,50.8728 0 1 1 101.7456,0 z"
       id="path6244-0"
       style="fill:#ffffff;fill-opacity:1;stroke:#000000;stroke-width:4.39229965;stroke-miterlimit:4;stroke-opacity:1;stroke-dasharray:none;display:inline"
       inkscape:connector-curvature="0" />
    <path
       d="m 986.51559,-1.37563 a 50.8728,50.8728 0 0 1 -101.7456,0 50.8728,50.8728 0 1 1 101.7456,0 z"
       id="path6244-6-2"
       style="fill:#ffffff;fill-opacity:1;stroke:#000000;stroke-width:4.39229965;stroke-miterlimit:4;stroke-opacity:1;stroke-dasharray:none;display:inline"
       inkscape:connector-curvature="0" />
  </g>
</svg>
